<svg width="15" height="20" viewBox="0 0 15 20" fill="none" xmlns="http://www.w3.org/2000/svg">
<path d="M15 4.76332V5H10V0H10.2367C10.4853 1.29998e-06 10.7238 0.0987666 10.8996 0.27457L14.7254 4.10039C14.9012 4.27621 15 4.51467 15 4.76332ZM9.6875 6.25C9.17188 6.25 8.75 5.82812 8.75 5.3125V0H0.9375C0.419727 0 0 0.419727 0 0.9375V19.0625C0 19.5803 0.419727 20 0.9375 20H14.0625C14.5803 20 15 19.5803 15 19.0625V6.25H9.6875ZM4.39629 6.875C5.43184 6.875 6.27129 7.71445 6.27129 8.75C6.27129 9.78555 5.43184 10.625 4.39629 10.625C3.36074 10.625 2.52129 9.78555 2.52129 8.75C2.52129 7.71445 3.36078 6.875 4.39629 6.875ZM12.5213 16.25H2.52129L2.54023 14.3561L4.08379 12.8125C4.26684 12.6295 4.54469 12.6484 4.72773 12.8314L6.27129 14.375L10.3148 10.3314C10.4979 10.1484 10.7947 10.1484 10.9778 10.3314L12.5213 11.875V16.25Z" />
</svg>
