<svg width="16" height="16" viewBox="0 0 16 16" fill="none" xmlns="http://www.w3.org/2000/svg">
<path d="M8.64803 3.00201C5.71868 2.92144 3.3188 5.27528 3.3188 8.1816H2.28864C2.02966 8.1816 1.90305 8.49238 2.08721 8.67079L3.69288 10.2822C3.80799 10.3973 3.98639 10.3973 4.1015 10.2822L5.70717 8.67079C5.88558 8.49238 5.75897 8.1816 5.49999 8.1816H4.46982C4.46982 5.93711 6.29995 4.12425 8.55595 4.15303C10.6968 4.18181 12.4982 5.98315 12.527 8.12405C12.5557 10.3743 10.7429 12.2102 8.4984 12.2102C7.57182 12.2102 6.71431 11.8936 6.03521 11.3584C5.80501 11.18 5.48272 11.1973 5.27554 11.4045C5.03382 11.6462 5.05109 12.0548 5.32158 12.262C6.19635 12.9526 7.29558 13.3612 8.4984 13.3612C11.4047 13.3612 13.7586 10.9613 13.678 8.03197C13.6032 5.33283 11.3472 3.07682 8.64803 3.00201ZM8.35452 5.87956C8.11856 5.87956 7.92289 6.07523 7.92289 6.31119V8.42907C7.92289 8.6305 8.03223 8.82042 8.20489 8.92401L10.0005 9.98871C10.2077 10.1096 10.4724 10.0405 10.5933 9.83907C10.7141 9.63189 10.6451 9.36716 10.4436 9.2463L8.78615 8.26218V6.30544C8.78615 6.07523 8.59048 5.87956 8.35452 5.87956Z" fill="#CCCCCC"/>
</svg>
