<svg width="16" height="16" viewBox="0 0 16 16" fill="none" xmlns="http://www.w3.org/2000/svg">
<path d="M12.7321 13.25H12.2857V2.5625C12.2857 2.25184 12.0459 2 11.75 2H4.25C3.95413 2 3.71429 2.25184 3.71429 2.5625V13.25H3.26786C3.11993 13.25 3 13.3759 3 13.5312V14H13V13.5312C13 13.3759 12.8801 13.25 12.7321 13.25ZM5.85714 3.78125C5.85714 3.62593 5.97708 3.5 6.125 3.5H7.01786C7.16578 3.5 7.28571 3.62593 7.28571 3.78125V4.71875C7.28571 4.87407 7.16578 5 7.01786 5H6.125C5.97708 5 5.85714 4.87407 5.85714 4.71875V3.78125ZM5.85714 6.03125C5.85714 5.87593 5.97708 5.75 6.125 5.75H7.01786C7.16578 5.75 7.28571 5.87593 7.28571 6.03125V6.96875C7.28571 7.12407 7.16578 7.25 7.01786 7.25H6.125C5.97708 7.25 5.85714 7.12407 5.85714 6.96875V6.03125ZM7.01786 9.5H6.125C5.97708 9.5 5.85714 9.37407 5.85714 9.21875V8.28125C5.85714 8.12593 5.97708 8 6.125 8H7.01786C7.16578 8 7.28571 8.12593 7.28571 8.28125V9.21875C7.28571 9.37407 7.16578 9.5 7.01786 9.5ZM8.71429 13.25H7.28571V11.2812C7.28571 11.1259 7.40565 11 7.55357 11H8.44643C8.59435 11 8.71429 11.1259 8.71429 11.2812V13.25ZM10.1429 9.21875C10.1429 9.37407 10.0229 9.5 9.875 9.5H8.98214C8.83422 9.5 8.71429 9.37407 8.71429 9.21875V8.28125C8.71429 8.12593 8.83422 8 8.98214 8H9.875C10.0229 8 10.1429 8.12593 10.1429 8.28125V9.21875ZM10.1429 6.96875C10.1429 7.12407 10.0229 7.25 9.875 7.25H8.98214C8.83422 7.25 8.71429 7.12407 8.71429 6.96875V6.03125C8.71429 5.87593 8.83422 5.75 8.98214 5.75H9.875C10.0229 5.75 10.1429 5.87593 10.1429 6.03125V6.96875ZM10.1429 4.71875C10.1429 4.87407 10.0229 5 9.875 5H8.98214C8.83422 5 8.71429 4.87407 8.71429 4.71875V3.78125C8.71429 3.62593 8.83422 3.5 8.98214 3.5H9.875C10.0229 3.5 10.1429 3.62593 10.1429 3.78125V4.71875Z" fill="#CCCCCC"/>
</svg>
