<svg width="16" height="16" viewBox="0 0 16 16" fill="none" xmlns="http://www.w3.org/2000/svg">
<path d="M13.7727 6.64167C13.8641 6.57708 14 6.6375 14 6.73958V11C14 11.5521 13.4961 12 12.875 12H3.125C2.50391 12 2 11.5521 2 11V6.74167C2 6.6375 2.13359 6.57917 2.22734 6.64375C2.75234 7.00625 3.44844 7.46667 5.83906 9.01042C6.33359 9.33125 7.16797 10.0063 8 10.0021C8.83672 10.0083 9.6875 9.31875 10.1633 9.01042C12.5539 7.46667 13.2477 7.00417 13.7727 6.64167ZM8 9.33333C8.54375 9.34167 9.32656 8.725 9.72031 8.47083C12.8305 6.46458 13.0672 6.28958 13.7844 5.78958C13.9203 5.69583 14 5.55 14 5.39583V5C14 4.44792 13.4961 4 12.875 4H3.125C2.50391 4 2 4.44792 2 5V5.39583C2 5.55 2.07969 5.69375 2.21562 5.78958C2.93281 6.2875 3.16953 6.46458 6.27969 8.47083C6.67344 8.725 7.45625 9.34167 8 9.33333Z" fill="#CCCCCC"/>
</svg>
