<svg width="16" height="16" viewBox="0 0 16 16" fill="none" xmlns="http://www.w3.org/2000/svg">
<path d="M10.0023 6.00078C10.5329 6.00078 11.0417 5.79003 11.4168 5.41488C11.792 5.03973 12.0027 4.53093 12.0027 4.00039C12.0027 3.46985 11.792 2.96105 11.4168 2.5859C11.0417 2.21075 10.5329 2 10.0023 2H6.00156C5.47134 2 4.96283 2.21063 4.5879 2.58556C4.21298 2.96048 4.00234 3.46899 4.00234 3.99922C4.00234 4.52944 4.21298 5.03795 4.5879 5.41288C4.96283 5.78781 5.47134 5.99844 6.00156 5.99844C5.47103 5.99844 4.96222 6.20919 4.58707 6.58434C4.21193 6.95948 4.00117 7.46829 4.00117 7.99883C4.00117 8.52936 4.21193 9.03817 4.58707 9.41332C4.96222 9.78846 5.47103 9.99922 6.00156 9.99922C5.60592 9.99899 5.2191 10.1161 4.89001 10.3357C4.56092 10.5553 4.30434 10.8676 4.15272 11.233C4.0011 11.5984 3.96125 12.0006 4.03821 12.3887C4.11517 12.7768 4.30548 13.1333 4.58507 13.4133C4.86467 13.6932 5.22099 13.8839 5.60899 13.9613C5.99698 14.0387 6.39921 13.9994 6.76483 13.8482C7.13044 13.697 7.44301 13.4408 7.663 13.1119C7.883 12.7831 8.00055 12.3964 8.00078 12.0008V6.00078H10.0023ZM10.0023 6.00078C9.60694 6.00078 9.22041 6.11803 8.89164 6.33771C8.56287 6.55739 8.30662 6.86962 8.15531 7.23493C8.00399 7.60024 7.9644 8.00222 8.04154 8.39003C8.11868 8.77784 8.30909 9.13407 8.58868 9.41366C8.86828 9.69326 9.22451 9.88366 9.61232 9.9608C10.0001 10.0379 10.4021 9.99835 10.7674 9.84704C11.1327 9.69572 11.445 9.43948 11.6646 9.11071C11.8843 8.78194 12.0016 8.39541 12.0016 8C12.0015 7.46979 11.7909 6.96132 11.4159 6.58641C11.041 6.21149 10.5326 6.00084 10.0023 6.00078Z" fill="#CCCCCC"/>
</svg>
