<svg width="16" height="16" viewBox="0 0 16 16" fill="none" xmlns="http://www.w3.org/2000/svg">
<path d="M6.01371 11.421C6.01371 11.4694 5.95806 11.5081 5.8879 11.5081C5.80806 11.5153 5.75242 11.4766 5.75242 11.421C5.75242 11.3726 5.80806 11.3339 5.87823 11.3339C5.95081 11.3266 6.01371 11.3653 6.01371 11.421ZM5.26129 11.3121C5.24435 11.3605 5.29274 11.4161 5.36532 11.4306C5.42823 11.4548 5.50081 11.4306 5.51532 11.3823C5.52984 11.3339 5.48387 11.2782 5.41129 11.2565C5.34839 11.2395 5.27823 11.2637 5.26129 11.3121ZM6.33065 11.271C6.26048 11.2879 6.2121 11.3339 6.21935 11.3895C6.22661 11.4379 6.28952 11.4694 6.3621 11.4524C6.43226 11.4355 6.48064 11.3895 6.47339 11.3411C6.46613 11.2952 6.40081 11.2637 6.33065 11.271ZM7.92258 2C4.56694 2 2 4.54758 2 7.90323C2 10.5863 3.68871 12.8823 6.10081 13.6903C6.41048 13.746 6.51935 13.5548 6.51935 13.3976C6.51935 13.2476 6.5121 12.4202 6.5121 11.9121C6.5121 11.9121 4.81855 12.275 4.4629 11.1911C4.4629 11.1911 4.1871 10.4871 3.79032 10.3056C3.79032 10.3056 3.23629 9.92581 3.82903 9.93306C3.82903 9.93306 4.43145 9.98145 4.7629 10.5573C5.29274 11.4911 6.18064 11.2226 6.52661 11.0629C6.58226 10.6758 6.73952 10.4073 6.91371 10.2476C5.56129 10.0976 4.19677 9.90161 4.19677 7.57419C4.19677 6.90887 4.38065 6.575 4.76774 6.14919C4.70484 5.99194 4.49919 5.34355 4.83065 4.50645C5.33629 4.34919 6.5 5.15968 6.5 5.15968C6.98387 5.02419 7.50403 4.95403 8.01935 4.95403C8.53468 4.95403 9.05484 5.02419 9.53871 5.15968C9.53871 5.15968 10.7024 4.34677 11.2081 4.50645C11.5395 5.34597 11.3339 5.99194 11.271 6.14919C11.6581 6.57742 11.8952 6.91129 11.8952 7.57419C11.8952 9.90887 10.4702 10.0952 9.11774 10.2476C9.34032 10.4387 9.52903 10.8016 9.52903 11.3702C9.52903 12.1855 9.52177 13.1944 9.52177 13.3927C9.52177 13.55 9.63306 13.7411 9.94032 13.6855C12.3597 12.8823 14 10.5863 14 7.90323C14 4.54758 11.2782 2 7.92258 2ZM4.35161 10.3444C4.32016 10.3685 4.32742 10.4242 4.36855 10.4702C4.40726 10.5089 4.4629 10.5258 4.49435 10.4944C4.52581 10.4702 4.51855 10.4145 4.47742 10.3685C4.43871 10.3298 4.38306 10.3129 4.35161 10.3444ZM4.09032 10.1484C4.07339 10.1798 4.09758 10.2185 4.14597 10.2427C4.18468 10.2669 4.23306 10.2597 4.25 10.2258C4.26694 10.1944 4.24274 10.1556 4.19435 10.1315C4.14597 10.1169 4.10726 10.1242 4.09032 10.1484ZM4.87419 11.0097C4.83548 11.0411 4.85 11.1137 4.90565 11.1597C4.96129 11.2153 5.03145 11.2226 5.0629 11.1839C5.09435 11.1524 5.07984 11.0798 5.03145 11.0339C4.97823 10.9782 4.90565 10.971 4.87419 11.0097ZM4.59839 10.654C4.55968 10.6782 4.55968 10.7411 4.59839 10.7968C4.6371 10.8524 4.70242 10.8766 4.73387 10.8524C4.77258 10.821 4.77258 10.7581 4.73387 10.7024C4.7 10.6468 4.6371 10.6226 4.59839 10.654Z" fill="#CCCCCC"/>
</svg>
