<svg width="16" height="16" viewBox="0 0 16 16" fill="none" xmlns="http://www.w3.org/2000/svg">
<path d="M13.1429 2H2.85446C2.38304 2 2 2.38839 2 2.86518V13.1348C2 13.6116 2.38304 14 2.85446 14H13.1429C13.6143 14 14 13.6116 14 13.1348V2.86518C14 2.38839 13.6143 2 13.1429 2ZM5.62679 12.2857H3.84821V6.55893H5.62946V12.2857H5.62679ZM4.7375 5.77679C4.16696 5.77679 3.70625 5.31339 3.70625 4.74554C3.70625 4.17768 4.16696 3.71429 4.7375 3.71429C5.30536 3.71429 5.76875 4.17768 5.76875 4.74554C5.76875 5.31607 5.30804 5.77679 4.7375 5.77679ZM12.2937 12.2857H10.5152V9.5C10.5152 8.83571 10.5018 7.98125 9.59107 7.98125C8.66429 7.98125 8.52232 8.70446 8.52232 9.45179V12.2857H6.74375V6.55893H8.45V7.34107H8.47411C8.7125 6.89107 9.29375 6.41696 10.1589 6.41696C11.9589 6.41696 12.2937 7.60357 12.2937 9.14643V12.2857Z" fill="#CCCCCC"/>
</svg>
