<svg width="16" height="16" viewBox="0 0 16 16" fill="none" xmlns="http://www.w3.org/2000/svg">
<path d="M12.125 9.5H11.375C11.2755 9.5 11.1802 9.53951 11.1098 9.60983C11.0395 9.68016 11 9.77554 11 9.875V12.5H3.5V5H6.875C6.97446 5 7.06984 4.96049 7.14016 4.89016C7.21049 4.81984 7.25 4.72446 7.25 4.625V3.875C7.25 3.77554 7.21049 3.68016 7.14016 3.60984C7.06984 3.53951 6.97446 3.5 6.875 3.5H3.125C2.82663 3.5 2.54048 3.61853 2.3295 3.8295C2.11853 4.04048 2 4.32663 2 4.625V12.875C2 13.1734 2.11853 13.4595 2.3295 13.6705C2.54048 13.8815 2.82663 14 3.125 14H11.375C11.6734 14 11.9595 13.8815 12.1705 13.6705C12.3815 13.4595 12.5 13.1734 12.5 12.875V9.875C12.5 9.77554 12.4605 9.68016 12.3902 9.60983C12.3198 9.53951 12.2245 9.5 12.125 9.5ZM13.4375 2H10.4375C9.93664 2 9.68633 2.60727 10.0391 2.96094L10.8765 3.79836L5.16406 9.50867C5.11162 9.56093 5.07001 9.62303 5.04162 9.6914C5.01323 9.75977 4.99862 9.83308 4.99862 9.90711C4.99862 9.98114 5.01323 10.0544 5.04162 10.1228C5.07001 10.1912 5.11162 10.2533 5.16406 10.3055L5.69539 10.8359C5.74765 10.8884 5.80974 10.93 5.87812 10.9584C5.94649 10.9868 6.0198 11.0014 6.09383 11.0014C6.16786 11.0014 6.24117 10.9868 6.30954 10.9584C6.37791 10.93 6.44001 10.8884 6.49227 10.8359L12.2019 5.12469L13.0391 5.96094C13.3906 6.3125 14 6.06641 14 5.5625V2.5625C14 2.41332 13.9407 2.27024 13.8352 2.16475C13.7298 2.05926 13.5867 2 13.4375 2Z" fill="#CCCCCC"/>
</svg>
