<svg width="16" height="16" viewBox="0 0 16 16" fill="none" xmlns="http://www.w3.org/2000/svg">
<path d="M8.00029 5.75C6.76039 5.75 5.75018 6.76016 5.75018 8C5.75018 9.23984 6.76039 10.25 8.00029 10.25C9.2402 10.25 10.2504 9.23984 10.2504 8C10.2504 6.76016 9.2402 5.75 8.00029 5.75ZM13.7756 7.63672L11.5559 6.52812L12.3411 4.175C12.4466 3.85625 12.1442 3.55391 11.8278 3.66172L9.47458 4.44688L8.36359 2.225C8.21358 1.925 7.787 1.925 7.63699 2.225L6.52834 4.44453L4.17276 3.65938C3.854 3.55391 3.55164 3.85625 3.65946 4.17266L4.44465 6.52578L2.22501 7.63672C1.925 7.78672 1.925 8.21328 2.22501 8.36328L4.44465 9.47187L3.65946 11.8273C3.55398 12.1461 3.85634 12.4484 4.17276 12.3406L6.526 11.5555L7.63465 13.775C7.78466 14.075 8.21124 14.075 8.36125 13.775L9.46989 11.5555L11.8231 12.3406C12.1419 12.4461 12.4443 12.1437 12.3364 11.8273L11.5512 9.47422L13.7709 8.36563C14.0756 8.21328 14.0756 7.78672 13.7756 7.63672ZM10.1215 10.1211C8.9519 11.2906 7.04868 11.2906 5.87909 10.1211C4.70951 8.95156 4.70951 7.04844 5.87909 5.87891C7.04868 4.70937 8.9519 4.70937 10.1215 5.87891C11.2911 7.04844 11.2911 8.95156 10.1215 10.1211Z" fill="#CCCCCC"/>
</svg>
