<svg width="44" height="28" viewBox="0 0 44 28" fill="none" xmlns="http://www.w3.org/2000/svg">
<path d="M17.7222 12.5461C20.1514 11.3675 21.4194 9.58405 21.4194 6.80809C21.4194 1.3337 17.4014 0 12.7646 0H0V27.4805H13.1236C18.0431 27.4805 22.6646 25.0845 22.6646 19.5015C22.6646 16.051 21.0528 13.4999 17.7222 12.5461ZM5.95069 4.69122H11.5347C13.6812 4.69122 15.6139 5.30379 15.6139 7.83162C15.6139 10.1656 14.109 11.1039 11.9854 11.1039H5.95069V4.69122ZM12.3139 22.8125H5.95069V15.2445H12.4361C15.0562 15.2445 16.7139 16.3534 16.7139 19.1681C16.7139 21.9441 14.7354 22.8125 12.3139 22.8125ZM39.6993 4.14843H28.7222V1.44226H39.6993V4.14843ZM44 17.8189C44 11.9335 40.6083 7.0252 34.459 7.0252C28.4854 7.0252 24.4292 11.5846 24.4292 17.5552C24.4292 23.7508 28.2715 28 34.459 28C39.1417 28 42.1743 25.8599 43.6333 21.3082H38.8819C38.3701 23.0064 36.2618 23.9058 34.6271 23.9058C31.4722 23.9058 29.8146 22.0294 29.8146 18.8424H43.9542C43.9771 18.5168 44 18.1678 44 17.8189ZM29.8222 15.3996C29.9979 12.7865 31.709 11.1504 34.291 11.1504C36.9951 11.1504 38.3549 12.7632 38.584 15.3996H29.8222Z" />
</svg>
