<svg width="23" height="23" viewBox="0 0 23 23" fill="none" xmlns="http://www.w3.org/2000/svg">
<path d="M9.77904 1.54053L10.9186 0.371308C11.4012 -0.123769 12.1815 -0.123769 12.6589 0.371308L22.6381 10.6046C23.1206 11.0997 23.1206 11.9003 22.6381 12.3901L12.6589 22.6287C12.1763 23.1238 11.396 23.1238 10.9186 22.6287L9.77904 21.4595C9.29137 20.9591 9.30164 20.1428 9.79958 19.653L15.9853 13.6067H1.23201C0.549269 13.6067 0 13.0432 0 12.3427V10.6573C0 9.95684 0.549269 9.39329 1.23201 9.39329H15.9853L9.79958 3.34703C9.29651 2.85722 9.28624 2.04087 9.77904 1.54053Z" />
</svg>
